<svg xmlns="http://www.w3.org/2000/svg" viewBox="0 0 256 256" fill="none">
  <rect width="256" height="256" rx="48" fill="#101419"/>
  <rect x="20" y="20" width="216" height="216" rx="40" fill="url(#bg)"/>
  <path d="M154 68v88.167A28.98 28.98 0 0 0 140 152c-16.016 0-29 12.984-29 29s12.984 29 29 29 29-12.984 29-29V96.703l48-10.286v57.75A28.98 28.98 0 0 0 203 140c-16.016 0-29 12.984-29 29s12.984 29 29 29 29-12.984 29-29V52l-78 16Z" fill="#F8F4EC"/>
  <circle cx="82" cy="74" r="16" fill="#78E1CF" fill-opacity=".88"/>
  <circle cx="71" cy="191" r="11" fill="#FFD166" fill-opacity=".92"/>
  <defs>
    <linearGradient id="bg" x1="38" y1="30" x2="216" y2="228" gradientUnits="userSpaceOnUse">
      <stop stop-color="#16202D"/>
      <stop offset="1" stop-color="#24354B"/>
    </linearGradient>
  </defs>
</svg>
